<?xml version="1.0" standalone="no"?>
<!DOCTYPE svg PUBLIC "-//W3C//DTD SVG 20010904//EN"
 "http://www.w3.org/TR/2001/REC-SVG-20010904/DTD/svg10.dtd">
<svg version="1.0" xmlns="http://www.w3.org/2000/svg"
 width="300.000000pt" height="300.000000pt" viewBox="0 0 300.000000 300.000000"
 preserveAspectRatio="xMidYMid meet">
<metadata>
Created by potrace 1.11, written by Peter Selinger 2001-2013
</metadata>
<g transform="translate(0.000000,300.000000) scale(0.100000,-0.100000)"
fill="#000000" stroke="none">
<path d="M1240 2985 c-325 -62 -591 -205 -821 -441 -195 -203 -315 -419 -387
-702 -26 -101 -27 -119 -27 -342 0 -223 1 -241 27 -342 77 -301 210 -532 430
-744 208 -200 454 -330 738 -391 122 -26 478 -26 600 0 284 61 530 191 738
391 220 212 353 443 430 744 26 101 27 119 27 342 0 223 -1 241 -27 342 -77
301 -210 532 -430 744 -204 196 -446 326 -728 389 -103 24 -464 30 -570 10z
m521 -1067 c27 -34 136 -219 190 -322 l50 -96 -64 -117 c-106 -197 -176 -303
-205 -314 -15 -6 -120 -9 -255 -7 -228 3 -230 3 -246 26 -38 55 -149 245 -191
325 l-45 87 52 102 c29 57 85 156 125 220 l72 117 85 4 c48 2 160 2 251 0 152
-4 166 -6 181 -25z m1095 -629 c-61 -371 -239 -661 -559 -908 -14 -11 -13 -5
7 35 13 27 30 69 37 94 20 69 17 287 -5 405 -10 55 -19 103 -20 107 0 5 42 23
96 42 198 69 380 191 433 290 10 19 21 34 23 32 1 -2 -4 -46 -12 -97z m-2627
-32 c85 -77 188 -133 341 -188 83 -29 105 -41 104 -56 -1 -10 -9 -61 -19 -113
-34 -186 -19 -396 35 -487 11 -18 17 -33 15 -33 -17 0 -193 161 -246 226 -184
221 -275 429 -324 739 l-6 40 29 -45 c16 -25 48 -62 71 -83z m828 -302 c65 -9
120 -19 124 -23 3 -4 33 -44 67 -88 34 -45 83 -106 110 -135 l49 -53 -50 -46
c-147 -132 -288 -210 -395 -217 -58 -4 -71 -2 -101 19 -19 12 -46 46 -60 73
-21 43 -25 67 -29 168 -4 110 6 220 29 308 l9 37 65 -14 c36 -8 118 -21 182
-29z m1147 -50 c47 -265 23 -427 -74 -493 -92 -63 -291 15 -487 193 l-53 47
23 27 c86 105 187 233 194 245 6 11 43 20 124 31 63 8 144 21 179 29 36 8 68
14 71 15 3 1 13 -42 23 -94z m-614 -49 c-100 -121 -87 -119 -160 -29 -35 43
-68 84 -73 91 -7 9 23 12 142 12 l152 0 -61 -74z m70 -431 c141 -107 269 -164
372 -166 l53 -1 -54 -24 c-299 -137 -763 -137 -1062 0 l-54 24 46 1 c127 2
316 102 489 259 l45 40 40 -34 c22 -19 78 -64 125 -99z"/>
<path d="M1416 1744 c-70 -22 -140 -94 -162 -169 -20 -72 -14 -129 23 -196 45
-84 123 -129 220 -129 174 0 292 163 241 334 -19 63 -100 140 -167 160 -66 19
-91 19 -155 0z"/>
</g>
</svg>
