<svg id="Ellipse_3_copy_Image" data-name="Ellipse 3 copy Image" xmlns="http://www.w3.org/2000/svg" viewBox="0 0 946 946"><defs><style>.cls-1{fill:#010101;}.cls-2{fill:#d8413c;}.cls-3{fill:#d7413c;}.cls-4{fill:#d6423d;}.cls-5{fill:#d7423d;}.cls-6{fill:#b45d5a;}.cls-7{fill:#b55d5a;}</style></defs><title>pokeball-react</title><path class="cls-1" d="M446,1h54a18.72,18.72,0,0,0,3,.93c23.24,3.13,46.81,4.7,69.66,9.6C673.59,33.19,758.79,82.69,827.36,159.85c69.28,78,108.41,169.25,117.81,273.2,0.39,4.33,1.21,8.63,1.83,12.94v57a10.69,10.69,0,0,0-1,2.49c-2.32,18.15-3.73,36.47-7,54.44-16.47,90-55.85,168.91-118.34,235.62Q696.27,928.34,514.47,945.2c-4.84.45-9.65,1.19-14.47,1.8H446a24.87,24.87,0,0,0-3.5-1c-22.56-3.15-45.44-4.83-67.64-9.62-100.72-21.72-185.74-71.19-254.19-148.19C51.38,710.24,12.25,619,2.84,515c-0.42-4.69-1.22-9.34-1.84-14q0-27,0-54a27.34,27.34,0,0,0,1-3.56C4.84,422,6.49,400.35,10.75,379.2c16.8-83.53,53.71-157.37,110.92-220.49Q246.91,20.53,433,2.84C437.38,2.43,441.68,1.62,446,1ZM712.48,837.71c1.14-.69,2.31-1.33,3.41-2.07,51.21-34.59,93.52-77.85,126.47-130.17,34.27-54.42,55.26-113.64,63.36-177.41,1.33-10.44,1.89-21,2.87-32.29A7.77,7.77,0,0,0,907,497c-8.42,26.3-25.91,45.75-47.21,62.24-29.12,22.55-62.18,37.55-96.63,49.77-11.68,4.14-23.54,7.77-35.51,11.7,0.37,1.67.67,3.12,1,4.56,8.86,37.19,15.21,74.74,14.18,113.12-0.95,35.65-7.21,69.84-31,98.38l-0.86.76ZM705,197.06c-0.33-4.29-.43-8.62-1-12.88-2-14.19-5.55-28-13.18-40.28-9.74-15.72-23.69-23.87-42.53-24-17.92-.13-34.25,5.29-50.11,12.69C572,144.77,549,161.65,527.25,180.29c-9.71,8.31-19,17.07-28.52,25.62,5.48,6.15,10.75,11.51,15.41,17.36,19.26,24.19,38.33,48.54,57.54,72.77,1,1.28,2.65,2.66,4.15,2.87,11.16,1.51,22.4,2.48,33.55,4.11,18.32,2.68,36.61,5.61,54.87,8.68,9.07,1.52,18,3.57,27.39,5.45,6.57-28,12.43-55.6,13.41-84,0.33-6.76.89-13.52,0.92-20.28C706,207.58,705.35,202.32,705,197.06Zm-464,0-0.05,36.08c1,28.53,6.81,56.26,13.44,83.87a19.64,19.64,0,0,0,2.64-.16A793.94,793.94,0,0,1,362.81,300c6.55-.6,11.08-2.94,15.28-8.61,14.73-19.91,30.18-39.29,45.67-58.63C431.09,223.61,439.13,215,447,206c-28.53-27.56-58.44-52.85-93.77-70.85-18.14-9.24-37-16.15-58-15.22-13.64.61-25.31,5.48-34.07,16C246.44,153.57,242.17,174.85,241,197.06ZM473.2,330.55c-25.28,1.13-50.4,2.32-75.52,3.31a8,8,0,0,0-7.22,4,1054.17,1054.17,0,0,0-76.08,132.06,8.85,8.85,0,0,0-.06,6.8,1015.45,1015.45,0,0,0,76.51,132.37,8.91,8.91,0,0,0,5.73,3.64,1086.09,1086.09,0,0,0,152.77,0,8.3,8.3,0,0,0,5.51-3.14,1016.4,1016.4,0,0,0,77-133.23,7.69,7.69,0,0,0,0-5.89,1023.5,1023.5,0,0,0-77.25-133.68,7,7,0,0,0-4.7-2.69C524.33,332.81,498.71,331.7,473.2,330.55ZM228.44,584.89a31.62,31.62,0,0,0,1.41-3.16c11-35.81,24.85-70.55,40.08-104.76a9.91,9.91,0,0,0,0-7.23,987.53,987.53,0,0,1-39.76-103.29c-0.48-1.5-1-3-1.58-4.54-28.39,8.2-55.65,17.85-81.53,31.07-22.33,11.41-43.45,24.52-59.74,44.15C68.73,459.52,68,483.54,85.16,506.8c8,10.83,18,19.59,28.95,27.29C148.76,558.46,187.91,572.73,228.44,584.89Zm489-.05c28.2-8.13,55.16-17.7,80.8-30.7,21.91-11.11,42.74-23.82,59-42.77,19.55-22.83,22-47.25,3.25-72-9.18-12.11-20.71-21.6-33.22-29.95-33.59-22.43-71-36.09-109.64-47.51a38.31,38.31,0,0,0-1.58,3.68,892.78,892.78,0,0,1-40.16,104.17c-1.23,2.71-1,4.78.08,7.4,10,24.18,20,48.34,29.55,72.68C709.94,561.23,713.41,573,717.43,584.84ZM254.56,630c-7.82,31.56-13.36,63-14.25,95-0.63,22.72.85,45.28,9.59,66.68,10.82,26.46,29.33,37.4,57.75,34.47,12.88-1.33,25-5.38,36.69-10.64,29.13-13.07,54.36-32,78.33-52.74,8.24-7.13,16.14-14.66,24.27-22.07a935.23,935.23,0,0,1-73-90.06c-1-1.44-3.4-2.4-5.28-2.67-25.51-3.66-51.08-6.94-76.57-10.78C279.65,635.33,267.34,632.49,254.56,630ZM499.17,740.59c24.72,23.91,50.52,45.88,79.94,63.24,19.3,11.39,39.45,20.74,62.2,22.68,21.66,1.84,38.75-5.72,49.94-25,9-15.48,12.15-32.55,13.72-50,2.31-25.73-.19-51.24-4.28-76.59-2.42-15-5.85-29.9-8.77-44.53a8,8,0,0,0-1.83-.31,934.13,934.13,0,0,1-114.25,18,6.26,6.26,0,0,0-3.82,2.54A920.77,920.77,0,0,1,499.17,740.59Zm228.53-414.1c1.57,0.51,3.12,1,4.69,1.51,34.4,10.21,67.85,22.72,99,40.82,23.35,13.58,44.68,29.57,60.68,51.78,7.52,10.44,12.73,22,16.59,34.22C903.09,348,864.37,255.14,791.76,176.59,769,152,743.67,130.2,714.94,112.69a1.87,1.87,0,0,0,.09,1.88c18.66,24.29,25.12,52.65,26.84,82.38a327,327,0,0,1,0,37.91c-0.8,13.72-2.29,27.45-4.45,41C734.71,292.66,731,309.29,727.71,326.49ZM669.84,862c-6.89.72-12.65,1.63-18.44,1.88-21.76.91-42.16-4.83-61.89-13.33-31.78-13.7-59.7-33.44-86-55.67-10.39-8.79-20.39-18-30.56-27.08-10.14,9-20,18.17-30.3,26.87-26.9,22.77-55.49,43-88.21,56.71C331.94,860.84,308.7,866.52,284,863a40.67,40.67,0,0,0-4.65,0C413.76,930.64,564.38,917.55,669.84,862ZM284,82.36l0.14,1.29a26.83,26.83,0,0,0,2.7.29c9.74,0.09,19.64-.89,29.2.45,19.84,2.79,38.31,10.19,56,19.43,33,17.21,62,39.91,89.28,65,3.86,3.56,7.77,7.07,11.54,10.51,10.42-9.28,20.18-18.36,30.34-27,25.6-21.66,52.77-41,83.56-54.74,20.79-9.28,42.3-15.5,65.37-14.58,4.12,0.16,8.22.75,12.33,1.14l0.2-1.36C604.91,53.26,541.5,39.17,474.81,39,407.83,38.8,344.2,53.08,284,82.36ZM41.07,503.7C34.19,531.62,67.29,640,97.25,691.78c36.52,63.06,89,114,134.29,143a20,20,0,0,0-1.59-3.5c-17.44-23.24-23.69-50.19-26-78.43-2.9-35.68,1.59-70.79,8.59-105.67,1.79-8.9,3.85-17.74,5.81-26.69-7.29-2.25-14.13-4.26-20.9-6.48C159.73,601.66,123.34,586.44,91,562.86c-18.62-13.57-34.83-29.44-45.54-50.23C44.12,510,42.87,507.38,41.07,503.7ZM218.43,325c-0.16-.74-0.51-2.51-0.94-4.25a494.92,494.92,0,0,1-13.34-81.24c-1.51-20.24-1.27-40.51,1.77-60.71,3.2-21.22,9.26-41.31,21.37-59.28a38.17,38.17,0,0,0,2-3.93l-1.27-.81c-72.59,50.6-125.9,116.73-158.87,199.07a400.4,400.4,0,0,0-28.57,129,4.26,4.26,0,0,0,2.15-2.25c7.26-17,18.59-31,32.19-43.27,20.3-18.36,43.4-32.48,68.41-43.13C167.82,343.73,192.91,334.81,218.43,325Zm382.69,13.17L653.46,429A703.46,703.46,0,0,0,681.71,352Zm53,178.49-52.57,91.12a3.32,3.32,0,0,0,1,.16c23.63-4,47.26-7.92,70.87-12,8.24-1.43,8.4-1.68,5.61-9.59C671,563.42,662.74,540.58,654.16,516.62ZM264.29,352.08a717.32,717.32,0,0,0,28.21,76.87l52.41-90.86Zm28.19,165.77a766.54,766.54,0,0,0-28.29,76.79l80.8,14ZM525,294l-52-62.2L421.07,294H525ZM473.24,714.38l51.31-61.57H422c7.22,9,14.31,18.24,21.76,27.15C453.1,691.2,462.76,702.2,473.24,714.38Z" transform="translate(-1 -1)"/><path class="cls-2" d="M228.44,584.89c-40.53-12.16-79.68-26.43-114.33-50.81-10.94-7.7-20.94-16.46-28.95-27.29C68,483.54,68.73,459.52,87.3,437.13,103.59,417.5,124.71,404.39,147,393c25.88-13.22,53.14-22.87,81.53-31.07,0.55,1.56,1.1,3,1.58,4.54a987.53,987.53,0,0,0,39.76,103.29,9.91,9.91,0,0,1,0,7.23c-15.23,34.21-29,68.95-40.08,104.76A31.62,31.62,0,0,1,228.44,584.89Z" transform="translate(-1 -1)"/><path class="cls-2" d="M717.43,584.84c-4-11.86-7.49-23.61-11.95-35-9.56-24.34-19.59-48.5-29.55-72.68-1.08-2.62-1.32-4.69-.08-7.4A892.78,892.78,0,0,0,716,365.61a38.31,38.31,0,0,1,1.58-3.68c38.65,11.43,76,25.09,109.64,47.51,12.51,8.35,24,17.84,33.22,29.95,18.75,24.73,16.3,49.15-3.25,72-16.23,19-37.06,31.67-59,42.77C772.59,567.14,745.63,576.71,717.43,584.84Z" transform="translate(-1 -1)"/><path class="cls-2" d="M241,197.06c1.17-22.21,5.44-43.49,20.17-61.14,8.76-10.5,20.43-15.37,34.07-16,20.93-.93,39.83,6,58,15.22,35.34,18,65.25,43.29,93.77,70.85-7.86,9-15.9,17.59-23.23,26.74-15.49,19.33-30.93,38.72-45.67,58.63-4.2,5.68-8.74,8-15.28,8.61A793.94,793.94,0,0,0,257,316.85a19.64,19.64,0,0,1-2.64.16c-6.64-27.61-12.4-55.34-13.44-83.87Q241,215.1,241,197.06Z" transform="translate(-1 -1)"/><path class="cls-2" d="M705.05,233.12c-1,28.43-6.84,56.06-13.41,84-9.35-1.88-18.33-3.93-27.39-5.45-18.26-3.06-36.55-6-54.87-8.68-11.14-1.63-22.38-2.6-33.55-4.11-1.5-.2-3.13-1.59-4.15-2.87-19.21-24.23-38.28-48.58-57.54-72.77-4.66-5.85-9.92-11.21-15.41-17.36,9.49-8.55,18.82-17.31,28.52-25.62,21.77-18.64,44.79-35.53,70.9-47.71,15.86-7.4,32.19-12.83,50.11-12.69,18.84,0.14,32.79,8.29,42.53,24,7.63,12.32,11.16,26.09,13.18,40.28,0.61,4.26.71,8.58,1,12.88Q705,215.09,705.05,233.12Z" transform="translate(-1 -1)"/><path class="cls-3" d="M727.71,326.49c3.33-17.2,7-33.83,9.67-50.62,2.16-13.57,3.65-27.3,4.45-41a327,327,0,0,0,0-37.91c-1.72-29.73-8.18-58.09-26.84-82.38a1.87,1.87,0,0,1-.09-1.88c28.73,17.51,54,39.26,76.81,63.9C864.37,255.14,903.09,348,908.65,454.82c-3.87-12.22-9.07-23.78-16.59-34.22-16-22.21-37.33-38.2-60.68-51.78-31.13-18.1-64.58-30.62-99-40.82C730.83,327.53,729.28,327,727.71,326.49Z" transform="translate(-1 -1)"/><path class="cls-3" d="M284,82.36C344.2,53.08,407.83,38.8,474.81,39c66.69,0.19,130.11,14.27,189.91,43.84l-0.2,1.36c-4.11-.39-8.21-1-12.33-1.14-23.07-.91-44.58,5.31-65.37,14.58-30.79,13.74-58,33.08-83.56,54.74-10.16,8.6-19.92,17.67-30.34,27-3.77-3.43-7.68-7-11.54-10.51-27.27-25.1-56.27-47.8-89.28-65-17.73-9.24-36.21-16.64-56-19.43-9.57-1.35-19.46-.36-29.2-0.45a26.83,26.83,0,0,1-2.7-.29Z" transform="translate(-1 -1)"/><path class="cls-3" d="M218.43,325c-25.52,9.85-50.61,18.78-75.07,29.19-25,10.65-48.11,24.77-68.41,43.13-13.6,12.3-24.93,26.26-32.19,43.27a4.26,4.26,0,0,1-2.15,2.25,400.4,400.4,0,0,1,28.57-129c33-82.33,86.28-148.47,158.87-199.07l1.27,0.81a38.17,38.17,0,0,1-2,3.93c-12.11,18-18.17,38.06-21.37,59.28-3,20.19-3.28,40.46-1.77,60.71a494.92,494.92,0,0,0,13.34,81.24C217.91,322.45,218.26,324.21,218.43,325Z" transform="translate(-1 -1)"/><path class="cls-4" d="M601.12,338.13L681.71,352A703.46,703.46,0,0,1,653.46,429Z" transform="translate(-1 -1)"/><path class="cls-4" d="M654.16,516.62c8.58,24,16.82,46.79,24.9,69.68,2.79,7.91,2.63,8.16-5.61,9.59-23.61,4.1-47.24,8-70.87,12a3.32,3.32,0,0,1-1-.16Z" transform="translate(-1 -1)"/><path class="cls-4" d="M264.29,352.08l80.63-14L292.5,428.95A717.32,717.32,0,0,1,264.29,352.08Z" transform="translate(-1 -1)"/><path class="cls-4" d="M292.48,517.85L345,608.68l-80.8-14A766.54,766.54,0,0,1,292.48,517.85Z" transform="translate(-1 -1)"/><path class="cls-5" d="M525,294H421.07l51.9-62.2Z" transform="translate(-1 -1)"/><path class="cls-6" d="M705.05,233.12q0-18,0-36.06c0.35,5.26,1,10.52,1,15.78C705.95,219.6,705.38,226.36,705.05,233.12Z" transform="translate(-1 -1)"/><path class="cls-7" d="M241,197.06q0,18,0,36.08Q241,215.1,241,197.06Z" transform="translate(-1 -1)"/><path class="cls-1" d="M551.27,473.22a78.27,78.27,0,1,1-156.53.31c-0.05-43.27,34.65-78.4,77.61-78.56A78.15,78.15,0,0,1,551.27,473.22Z" transform="translate(-1 -1)"/></svg>